Coordinates
version=1
nRows=5
nColumns=40
inDegrees=yes

Units are S.I. units (second, meters, Newtons, ...)
If the header above contains a line with 'inDegrees', this indicates whether rotational values are in degrees (yes) or radians (no).

endheader
time	pelvis_tilt	pelvis_list	pelvis_rotation	pelvis_tx	pelvis_ty	pelvis_tz	hip_flexion_r	hip_adduction_r	hip_rotation_r	knee_angle_r	knee_angle_r_beta	ankle_angle_r	subtalar_angle_r	mtp_angle_r	hip_flexion_l	hip_adduction_l	hip_rotation_l	knee_angle_l	knee_angle_l_beta	ankle_angle_l	subtalar_angle_l	mtp_angle_l	lumbar_extension	lumbar_bending	lumbar_rotation	arm_flex_r	arm_add_r	arm_rot_r	elbow_flex_r	pro_sup_r	wrist_flex_r	wrist_dev_r	arm_flex_l	arm_add_l	arm_rot_l	elbow_flex_l	pro_sup_l	wrist_flex_l	wrist_dev_l
      2.81000000	     -1.91900831	     -7.37865084	     88.47744005	      0.17424219	      0.99973514	     -1.05060643	     28.62494986	     -4.01193492	     -4.70742223	     49.13840694	      0.85762699	      4.24824497	      0.00000000	      0.00000000	      8.67764099	      5.97231557	      3.88045995	      7.09271183	      0.12379117	      2.87236973	      0.00000000	      0.00000000	      0.79661666	     -3.10619360	     -7.09013384	      0.00000000	      0.00000000	      0.00000000	      0.00000000	      0.00000000	      0.00000000	      0.00000000	      0.00000000	      0.00000000	      0.00000000	      0.00000000	      0.00000000	      0.00000000	      0.00000000
      2.82000000	     -1.83631395	     -7.22531731	     88.85242848	      0.17380255	      0.99978747	     -1.05973751	     28.93135673	     -3.94034486	     -4.91139367	     46.78567033	      0.81656399	      4.15428848	      0.00000000	      0.00000000	      7.72233623	      5.95893751	      4.30219878	      6.73429423	      0.11753561	      3.21043970	      0.00000000	     -0.00000000	      0.56556055	     -3.07782511	     -7.42670244	     -0.00000000	     -0.00000000	     -0.00000000	      0.00000000	      0.00000000	     -0.00000000	      0.00000000	      0.00000000	      0.00000000	      0.00000000	      0.00000000	      0.00000000	      0.00000000	     -0.00000000
      2.83000000	     -1.79938884	     -7.17772047	     89.16961566	      0.17346607	      0.99956523	     -1.06882886	     29.31017934	     -3.87681443	     -5.01428300	     44.33326604	      0.77376146	      3.94599047	      0.00000000	      0.00000000	      6.90398476	      5.97266366	      4.67630495	      6.42158572	      0.11207781	      3.59342117	      0.00000000	      0.00000000	      0.45261923	     -3.09816803	     -7.67817338	      0.00000000	      0.00000000	      0.00000000	      0.00000000	      0.00000000	      0.00000000	      0.00000000	      0.00000000	      0.00000000	      0.00000000	      0.00000000	      0.00000000	      0.00000000	      0.00000000
      2.84000000	     -2.12841875	     -7.42838850	     89.32227713	      0.17319229	      0.99856069	     -1.07757185	     30.15706675	     -4.13931978	     -4.82452437	     42.06406143	      0.73415637	      4.02187121	      0.00000000	      0.00000000	      6.57385852	      6.33846687	      4.44932790	      6.36249976	      0.11104657	      3.80864605	      0.00000000	      0.00000000	      0.68120159	     -3.54152878	     -7.63338761	     -0.00000000	     -0.00000000	     -0.00000000	      0.00000000	      0.00000000	      0.00000000	      0.00000000	      0.00000000	     -0.00000000	      0.00000000	      0.00000000	      0.00000000	     -0.00000000	      0.00000000
      2.85000000	     -1.84889121	     -7.15506743	     89.55455389	      0.17322828	      0.99857919	     -1.08697997	     30.02053757	     -3.72695021	     -4.83756392	     39.15116493	      0.68331673	      3.25781279	     -0.00000000	      0.00000000	      5.35737911	      6.07163289	      5.22322734	      5.82313698	      0.10163291	      4.42091727	      0.00000000	      0.00000000	      0.31974402	     -3.26578513	     -7.86724285	      0.00000000	     -0.00000000	     -0.00000000	      0.00000000	      0.00000000	      0.00000000	     -0.00000000	      0.00000000	      0.00000000	      0.00000000	      0.00000000	      0.00000000	     -0.00000000	     -0.00000000
